<?xml version="1.0" encoding="utf-8"?>
<!-- Generator: Adobe Illustrator 16.0.0, SVG Export Plug-In . SVG Version: 6.00 Build 0)  -->
<!DOCTYPE svg PUBLIC "-//W3C//DTD SVG 1.1//EN" "http://www.w3.org/Graphics/SVG/1.1/DTD/svg11.dtd">
<svg version="1.1" id="Layer_1" xmlns="http://www.w3.org/2000/svg" xmlns:xlink="http://www.w3.org/1999/xlink" x="0px" y="0px"
	 width="980.57px" height="385.549px" viewBox="0 0 980.57 385.549" enable-background="new 0 0 980.57 385.549"
	 xml:space="preserve">
<g>
	<path fill="#009EA0" d="M-2818.969-197.74c0-5.297,2.771-9.033,7.348-11.805c-2.045-1.442-3.375-3.492-3.375-6.381
		c0-4.342,2.895-7.594,6.387-10.124c-4.939-3.732-7.348-9.397-7.348-15.661c0-10.962,7.588-19.996,22.527-19.996
		c3.375,0,6.51,0.48,9.158,1.324h20.723v10.604l-9.158-0.485c1.084,2.653,1.806,5.542,1.806,8.554
		c0,10.963-7.588,20.002-22.528,20.002c-3.374,0-6.263-0.363-8.793-1.207c-0.604,0.604-0.962,1.324-0.962,2.045
		c0,7.711,36.864-1.564,36.864,20.002c0,8.432-5.543,17.829-27.59,17.829C-2812.582-183.04-2818.969-189.784-2818.969-197.74z
		 M-2779.695-200.025c0-6.264-13.734-5.062-24.093-6.866c-2.05,1.805-3.374,4.095-3.374,6.626c0,5.297,6.023,7.225,13.732,7.225
		C-2780.416-193.041-2779.695-198.578-2779.695-200.025z M-2803.307-241.711c0,8.191,5.301,10.604,9.877,10.604
		s9.879-2.29,9.879-10.604c0-8.191-5.303-10.481-9.879-10.481S-2803.307-249.902-2803.307-241.711z"/>
	<path fill="#009EA0" d="M-2763.637-234.358c0-15.784,9.035-27.349,25.544-27.349c16.382,0,23.853,11.564,23.853,25.901
		c0,1.806-0.123,3.855-0.48,5.782h-35.183c1.329,8.191,6.269,12.65,15.666,12.65c7.106,0,12.649-2.654,16.745-4.822v10.482
		c-4.096,2.29-10.364,4.698-18.795,4.698C-2754.602-207.015-2763.637-218.58-2763.637-234.358z M-2750.021-239.543h23.009
		c-0.48-6.141-2.89-12.287-10.84-12.287C-2745.686-251.83-2749.06-246.047-2750.021-239.543z"/>
	<path fill="#009EA0" d="M-2705.164-222.676v-26.986h-9.034v-10.721h9.034v-13.253h13.611v13.253h14.219v10.721h-14.219v26.266
		c0,4.939,2.894,5.9,6.989,5.9c3.129,0,6.022-0.604,8.073-1.324v10.001c-3.135,0.844-7.353,1.805-12.409,1.805
		C-2701.794-207.015-2705.164-213.16-2705.164-222.676z"/>
</g>
<g>
	<path d="M-2880.981-119.605h7.95v-63.855h-7.95v-10.721h21.562v74.576h7.955v10.6h-29.517V-119.605z"/>
	<path fill="#009EA0" d="M-2834.195-168.521c5.185,0,9.397-4.218,9.397-9.397s-4.213-9.397-9.397-9.397
		c-5.18,0-9.393,4.218-9.393,9.397S-2839.375-168.521-2834.195-168.521z"/>
	<polygon points="-2826.726,-119.605 -2826.726,-161.051 -2848.287,-161.051 -2848.287,-150.446 -2840.336,-150.446 
		-2840.336,-119.605 -2848.287,-119.605 -2848.287,-109.006 -2818.774,-109.006 -2818.774,-119.605 	"/>
	<path d="M-2815.723-109.023v-14.023h10.839v4.281c2.291,0.603,6.509,1.206,9.639,1.206c6.146,0,8.554-2.408,8.554-5.062
		c0-9.275-28.551-4.096-28.551-23.611c0-9.516,6.744-16.143,20.963-16.143c7.107,0,14.577,1.688,18.432,2.889v14.7h-10.962v-7.106
		c-2.29-0.486-5.425-0.727-7.353-0.727c-6.141,0-8.068,2.413-8.068,4.939c0,10,28.674,3.978,28.674,24.098
		C-2773.557-115.873-2777.854-101.437-2815.723-109.023z"/>
	<path d="M-2763.158-123.342v-25.287h-9.04v-10.721h9.04v-14.953h13.61v14.953h14.219v10.721h-14.219v24.565
		c0,4.938,2.894,5.9,6.989,5.9c3.134,0,6.023-0.603,8.073-1.324v10.001c-3.134,0.844-7.353,1.805-12.409,1.805
		C-2759.789-107.682-2763.158-113.827-2763.158-123.342z"/>
</g>
<g>
	<path fill="#009EA0" d="M-2893.306-300.078c0-5.297,2.771-9.034,7.347-11.806c-2.045-1.441-3.374-3.492-3.374-6.381
		c0-4.341,2.894-7.593,6.386-10.123c-4.938-3.732-7.347-9.398-7.347-15.661c0-10.963,7.587-19.997,22.527-19.997
		c3.374,0,6.508,0.48,9.156,1.324h20.723v10.604l-9.156-0.486c1.084,2.654,1.805,5.543,1.805,8.555
		c0,10.962-7.588,20.001-22.527,20.001c-3.375,0-6.264-0.363-8.795-1.206c-0.604,0.603-0.961,1.324-0.961,2.045
		c0,7.71,36.864-1.564,36.864,20.002c0,8.431-5.542,17.829-27.589,17.829C-2886.92-285.378-2893.306-292.122-2893.306-300.078z
		 M-2854.034-302.364c0-6.263-13.732-5.061-24.092-6.865c-2.051,1.805-3.375,4.095-3.375,6.625c0,5.298,6.023,7.225,13.734,7.225
		C-2854.755-295.38-2854.034-300.917-2854.034-302.364z M-2877.646-344.049c0,8.19,5.303,10.604,9.879,10.604
		s9.878-2.29,9.878-10.604c0-8.191-5.302-10.482-9.878-10.482S-2877.646-352.24-2877.646-344.049z"/>
	<path fill="#009EA0" d="M-2837.975-336.696c0-15.784,9.034-27.35,25.544-27.35c16.383,0,23.852,11.565,23.852,25.901
		c0,1.806-0.122,3.856-0.48,5.783h-35.182c1.329,8.19,6.268,12.649,15.666,12.649c7.107,0,12.649-2.653,16.744-4.821v10.481
		c-4.095,2.291-10.363,4.699-18.795,4.699C-2828.94-309.353-2837.975-320.919-2837.975-336.696z M-2824.358-341.881h23.008
		c-0.48-6.141-2.889-12.287-10.84-12.287C-2820.022-354.168-2823.397-348.385-2824.358-341.881z"/>
	<path fill="#009EA0" d="M-2779.501-325.014V-352h-9.035v-10.722h9.035v-13.253h13.609v13.253h14.22V-352h-14.22v26.265
		c0,4.939,2.895,5.9,6.99,5.9c3.129,0,6.023-0.603,8.073-1.324v10.002c-3.134,0.844-7.353,1.805-12.409,1.805
		C-2776.132-309.353-2779.501-315.499-2779.501-325.014z"/>
</g>
<g>
	<path d="M-2723.986-321.276h7.95v-63.855h-7.95v-10.722h21.562v74.577h7.955v10.6h-29.517V-321.276z"/>
	<path fill="#009EA0" d="M-2677.2-370.191c5.185,0,9.397-4.219,9.397-9.398c0-5.179-4.213-9.396-9.397-9.396
		c-5.18,0-9.393,4.218-9.393,9.396C-2686.593-374.41-2682.38-370.191-2677.2-370.191z"/>
	<polygon points="-2669.73,-321.276 -2669.73,-362.722 -2691.292,-362.722 -2691.292,-352.117 -2683.341,-352.117 
		-2683.341,-321.276 -2691.292,-321.276 -2691.292,-310.677 -2661.779,-310.677 -2661.779,-321.276 	"/>
	<path d="M-2658.728-310.695v-14.022h10.839v4.28c2.291,0.603,6.509,1.206,9.639,1.206c6.146,0,8.554-2.408,8.554-5.062
		c0-9.274-28.551-4.095-28.551-23.611c0-9.516,6.744-16.142,20.963-16.142c7.107,0,14.577,1.687,18.432,2.889v14.7h-10.962v-7.107
		c-2.29-0.486-5.425-0.727-7.353-0.727c-6.141,0-8.068,2.414-8.068,4.939c0,10.001,28.674,3.979,28.674,24.098
		C-2616.562-317.544-2620.859-303.108-2658.728-310.695z"/>
	<path d="M-2606.163-325.014V-350.3h-9.04v-10.722h9.04v-14.953h13.61v14.953h14.219v10.722h-14.219v24.564
		c0,4.939,2.894,5.9,6.989,5.9c3.134,0,6.023-0.603,8.073-1.324v10.002c-3.134,0.844-7.353,1.805-12.409,1.805
		C-2602.794-309.353-2606.163-315.499-2606.163-325.014z"/>
</g>
<g>
	<path fill="#ED0E6B" d="M-2123.707-197.74c0-5.297,2.771-9.033,7.348-11.805c-2.045-1.442-3.375-3.492-3.375-6.381
		c0-4.342,2.895-7.594,6.387-10.124c-4.939-3.732-7.348-9.397-7.348-15.661c0-10.962,7.588-19.996,22.527-19.996
		c3.375,0,6.51,0.48,9.158,1.324h20.723v10.604l-9.158-0.485c1.084,2.653,1.806,5.542,1.806,8.554
		c0,10.963-7.588,20.002-22.528,20.002c-3.374,0-6.263-0.363-8.793-1.207c-0.604,0.604-0.962,1.324-0.962,2.045
		c0,7.711,36.864-1.564,36.864,20.002c0,8.432-5.543,17.829-27.59,17.829C-2117.32-183.04-2123.707-189.784-2123.707-197.74z
		 M-2084.434-200.025c0-6.264-13.734-5.062-24.093-6.866c-2.05,1.805-3.374,4.095-3.374,6.626c0,5.297,6.023,7.225,13.732,7.225
		C-2085.154-193.041-2084.434-198.578-2084.434-200.025z M-2108.045-241.711c0,8.191,5.301,10.604,9.877,10.604
		s9.879-2.29,9.879-10.604c0-8.191-5.303-10.481-9.879-10.481S-2108.045-249.902-2108.045-241.711z"/>
	<path fill="#ED0E6B" d="M-2068.375-234.358c0-15.784,9.035-27.349,25.544-27.349c16.382,0,23.853,11.564,23.853,25.901
		c0,1.806-0.123,3.855-0.48,5.782h-35.183c1.329,8.191,6.269,12.65,15.666,12.65c7.106,0,12.649-2.654,16.745-4.822v10.482
		c-4.096,2.29-10.364,4.698-18.795,4.698C-2059.34-207.015-2068.375-218.58-2068.375-234.358z M-2054.76-239.543h23.009
		c-0.48-6.141-2.89-12.287-10.84-12.287C-2050.424-251.83-2053.798-246.047-2054.76-239.543z"/>
	<path fill="#ED0E6B" d="M-2009.902-222.676v-26.986h-9.034v-10.721h9.034v-13.253h13.611v13.253h14.219v10.721h-14.219v26.266
		c0,4.939,2.894,5.9,6.989,5.9c3.129,0,6.022-0.604,8.073-1.324v10.001c-3.135,0.844-7.353,1.805-12.409,1.805
		C-2006.532-207.015-2009.902-213.16-2009.902-222.676z"/>
</g>
<g>
	<path d="M-2185.72-119.605h7.95v-63.855h-7.95v-10.721h21.562v74.576h7.955v10.6h-29.517V-119.605z"/>
	<path fill="#ED0E6B" d="M-2138.934-168.521c5.185,0,9.397-4.218,9.397-9.397s-4.213-9.397-9.397-9.397
		c-5.18,0-9.393,4.218-9.393,9.397S-2144.113-168.521-2138.934-168.521z"/>
	<polygon points="-2131.464,-119.605 -2131.464,-161.051 -2153.025,-161.051 -2153.025,-150.446 -2145.074,-150.446 
		-2145.074,-119.605 -2153.025,-119.605 -2153.025,-109.006 -2123.513,-109.006 -2123.513,-119.605 	"/>
	<path d="M-2120.461-109.023v-14.023h10.839v4.281c2.291,0.603,6.509,1.206,9.639,1.206c6.146,0,8.554-2.408,8.554-5.062
		c0-9.275-28.551-4.096-28.551-23.611c0-9.516,6.744-16.143,20.963-16.143c7.107,0,14.577,1.688,18.432,2.889v14.7h-10.962v-7.106
		c-2.29-0.486-5.425-0.727-7.353-0.727c-6.141,0-8.068,2.413-8.068,4.939c0,10,28.674,3.978,28.674,24.098
		C-2078.295-115.873-2082.593-101.437-2120.461-109.023z"/>
	<path d="M-2067.896-123.342v-25.287h-9.04v-10.721h9.04v-14.953h13.61v14.953h14.219v10.721h-14.219v24.565
		c0,4.938,2.894,5.9,6.989,5.9c3.134,0,6.023-0.603,8.073-1.324v10.001c-3.134,0.844-7.353,1.805-12.409,1.805
		C-2064.527-107.682-2067.896-113.827-2067.896-123.342z"/>
</g>
<g>
	<path fill="#ED0E6B" d="M-2198.044-300.078c0-5.297,2.771-9.034,7.347-11.806c-2.045-1.442-3.374-3.492-3.374-6.381
		c0-4.341,2.894-7.593,6.386-10.124c-4.938-3.731-7.347-9.397-7.347-15.661c0-10.961,7.587-19.996,22.527-19.996
		c3.374,0,6.508,0.48,9.156,1.324h20.723v10.604l-9.156-0.484c1.084,2.652,1.805,5.542,1.805,8.553
		c0,10.963-7.588,20.003-22.527,20.003c-3.375,0-6.264-0.363-8.795-1.207c-0.604,0.604-0.961,1.324-0.961,2.045
		c0,7.711,36.864-1.564,36.864,20.002c0,8.431-5.542,17.829-27.589,17.829C-2191.658-285.378-2198.044-292.122-2198.044-300.078z
		 M-2158.772-302.363c0-6.264-13.732-5.063-24.092-6.867c-2.051,1.805-3.375,4.096-3.375,6.627c0,5.297,6.023,7.224,13.734,7.224
		C-2159.493-295.38-2158.772-300.916-2158.772-302.363z M-2182.384-344.05c0,8.191,5.303,10.604,9.879,10.604
		s9.878-2.29,9.878-10.604c0-8.19-5.302-10.48-9.878-10.48S-2182.384-352.24-2182.384-344.05z"/>
	<path fill="#ED0E6B" d="M-2142.713-336.696c0-15.784,9.034-27.35,25.544-27.35c16.383,0,23.852,11.565,23.852,25.902
		c0,1.805-0.122,3.855-0.48,5.782h-35.182c1.329,8.191,6.268,12.649,15.666,12.649c7.107,0,12.649-2.653,16.744-4.821v10.481
		c-4.095,2.29-10.363,4.698-18.795,4.698C-2133.679-309.354-2142.713-320.918-2142.713-336.696z M-2129.097-341.882h23.008
		c-0.48-6.141-2.889-12.286-10.84-12.286C-2124.761-354.168-2128.136-348.386-2129.097-341.882z"/>
	<path fill="#ED0E6B" d="M-2084.239-325.014V-352h-9.035v-10.722h9.035v-13.253h13.609v13.253h14.22V-352h-14.22v26.266
		c0,4.938,2.895,5.9,6.99,5.9c3.129,0,6.023-0.604,8.073-1.324v10c-3.134,0.844-7.353,1.805-12.409,1.805
		C-2080.87-309.354-2084.239-315.498-2084.239-325.014z"/>
</g>
<g>
	<path d="M-2028.725-321.276h7.95v-63.855h-7.95v-10.722h21.562v74.577h7.955v10.599h-29.517V-321.276z"/>
	<path fill="#ED0E6B" d="M-1981.938-370.192c5.185,0,9.397-4.217,9.397-9.396s-4.213-9.398-9.397-9.398
		c-5.18,0-9.393,4.219-9.393,9.398S-1987.118-370.192-1981.938-370.192z"/>
	<polygon points="-1974.469,-321.276 -1974.469,-362.722 -1996.03,-362.722 -1996.03,-352.118 -1988.079,-352.118 
		-1988.079,-321.276 -1996.03,-321.276 -1996.03,-310.678 -1966.518,-310.678 -1966.518,-321.276 	"/>
	<path d="M-1963.466-310.695v-14.023h10.839v4.281c2.291,0.604,6.509,1.207,9.639,1.207c6.146,0,8.554-2.408,8.554-5.063
		c0-9.274-28.551-4.096-28.551-23.611c0-9.515,6.744-16.142,20.963-16.142c7.107,0,14.577,1.688,18.432,2.889v14.699h-10.962v-7.106
		c-2.29-0.485-5.425-0.726-7.353-0.726c-6.141,0-8.068,2.412-8.068,4.939c0,10,28.674,3.977,28.674,24.097
		C-1921.3-317.544-1925.598-303.107-1963.466-310.695z"/>
	<path d="M-1910.901-325.014V-350.3h-9.04v-10.722h9.04v-14.953h13.61v14.953h14.219v10.722h-14.219v24.565
		c0,4.938,2.894,5.9,6.989,5.9c3.134,0,6.023-0.604,8.073-1.324v10c-3.134,0.844-7.353,1.805-12.409,1.805
		C-1907.532-309.354-1910.901-315.498-1910.901-325.014z"/>
</g>
<g>
	<path d="M-1927.707,237.26c0-5.297,2.771-9.033,7.348-11.805c-2.045-1.442-3.375-3.492-3.375-6.381
		c0-4.342,2.895-7.594,6.387-10.124c-4.939-3.732-7.348-9.397-7.348-15.661c0-10.962,7.588-19.996,22.527-19.996
		c3.375,0,6.51,0.48,9.158,1.324h20.723v10.604l-9.158-0.485c1.084,2.653,1.806,5.542,1.806,8.554
		c0,10.963-7.588,20.002-22.528,20.002c-3.374,0-6.263-0.363-8.793-1.207c-0.604,0.604-0.962,1.324-0.962,2.045
		c0,7.711,36.864-1.564,36.864,20.002c0,8.432-5.543,17.829-27.59,17.829C-1921.32,251.96-1927.707,245.216-1927.707,237.26z
		 M-1888.434,234.975c0-6.264-13.734-5.062-24.093-6.866c-2.05,1.805-3.374,4.095-3.374,6.626c0,5.297,6.023,7.225,13.732,7.225
		C-1889.154,241.959-1888.434,236.422-1888.434,234.975z M-1912.045,193.289c0,8.191,5.301,10.604,9.877,10.604
		s9.879-2.29,9.879-10.604c0-8.191-5.303-10.481-9.879-10.481S-1912.045,185.098-1912.045,193.289z"/>
	<path d="M-1872.375,200.642c0-15.784,9.035-27.349,25.544-27.349c16.382,0,23.853,11.564,23.853,25.901
		c0,1.806-0.123,3.855-0.48,5.782h-35.183c1.329,8.191,6.269,12.65,15.666,12.65c7.106,0,12.649-2.654,16.745-4.822v10.482
		c-4.096,2.29-10.364,4.698-18.795,4.698C-1863.34,227.985-1872.375,216.42-1872.375,200.642z M-1858.76,195.457h23.009
		c-0.48-6.141-2.89-12.287-10.84-12.287C-1854.424,183.17-1857.798,188.953-1858.76,195.457z"/>
	<path d="M-1813.902,212.324v-26.986h-9.034v-10.721h9.034v-13.254h13.611v13.254h14.219v10.721h-14.219v26.266
		c0,4.939,2.894,5.9,6.989,5.9c3.129,0,6.022-0.604,8.073-1.324v10.001c-3.135,0.844-7.353,1.805-12.409,1.805
		C-1810.532,227.985-1813.902,221.84-1813.902,212.324z"/>
</g>
<g>
	<path fill="#ED0E6B" d="M-1989.72,315.395h7.95v-63.855h-7.95v-10.721h21.562v74.576h7.955v10.6h-29.517V315.395z"/>
	<path d="M-1942.934,266.479c5.185,0,9.397-4.218,9.397-9.397s-4.213-9.397-9.397-9.397c-5.18,0-9.393,4.218-9.393,9.397
		S-1948.113,266.479-1942.934,266.479z"/>
	<polygon fill="#ED0E6B" points="-1935.464,315.395 -1935.464,273.949 -1957.025,273.949 -1957.025,284.554 -1949.074,284.554 
		-1949.074,315.395 -1957.025,315.395 -1957.025,325.994 -1927.513,325.994 -1927.513,315.395 	"/>
	<path fill="#ED0E6B" d="M-1924.461,325.977v-14.023h10.839v4.281c2.291,0.603,6.509,1.206,9.639,1.206
		c6.146,0,8.554-2.408,8.554-5.062c0-9.275-28.551-4.096-28.551-23.611c0-9.516,6.744-16.143,20.963-16.143
		c7.107,0,14.577,1.688,18.432,2.889v14.7h-10.962v-7.106c-2.29-0.486-5.425-0.727-7.353-0.727c-6.141,0-8.068,2.413-8.068,4.939
		c0,10,28.674,3.978,28.674,24.098C-1882.295,319.127-1886.593,333.563-1924.461,325.977z"/>
	<path fill="#ED0E6B" d="M-1871.896,311.658v-25.287h-9.04V275.65h9.04v-14.953h13.61v14.953h14.219v10.721h-14.219v24.565
		c0,4.938,2.894,5.9,6.989,5.9c3.134,0,6.023-0.603,8.073-1.324v10.001c-3.134,0.844-7.353,1.805-12.409,1.805
		C-1868.527,327.318-1871.896,321.173-1871.896,311.658z"/>
</g>
<g>
	<path d="M-2002.044,134.922c0-5.297,2.771-9.034,7.347-11.806c-2.045-1.442-3.374-3.492-3.374-6.381
		c0-4.341,2.894-7.593,6.386-10.124c-4.938-3.732-7.347-9.396-7.347-15.66c0-10.963,7.587-19.997,22.527-19.997
		c3.374,0,6.508,0.48,9.156,1.324h20.723v10.604l-9.156-0.486c1.084,2.654,1.805,5.543,1.805,8.555
		c0,10.962-7.588,20.002-22.527,20.002c-3.375,0-6.264-0.363-8.795-1.207c-0.604,0.604-0.961,1.324-0.961,2.045
		c0,7.711,36.864-1.564,36.864,20.002c0,8.432-5.542,17.828-27.589,17.828C-1995.658,149.621-2002.044,142.877-2002.044,134.922z
		 M-1962.772,132.637c0-6.264-13.732-5.063-24.092-6.867c-2.051,1.805-3.375,4.096-3.375,6.627c0,5.297,6.023,7.225,13.734,7.225
		C-1963.493,139.621-1962.772,134.084-1962.772,132.637z M-1986.384,90.951c0,8.19,5.303,10.604,9.879,10.604
		s9.878-2.291,9.878-10.604c0-8.191-5.302-10.482-9.878-10.482S-1986.384,82.76-1986.384,90.951z"/>
	<path d="M-1946.713,98.303c0-15.783,9.034-27.349,25.544-27.349c16.383,0,23.852,11.565,23.852,25.901
		c0,1.806-0.122,3.855-0.48,5.783h-35.182c1.329,8.191,6.268,12.649,15.666,12.649c7.107,0,12.649-2.653,16.744-4.821v10.481
		c-4.095,2.29-10.363,4.698-18.795,4.698C-1937.679,125.646-1946.713,114.082-1946.713,98.303z M-1933.097,93.119h23.008
		c-0.48-6.141-2.889-12.287-10.84-12.287C-1928.761,80.832-1932.136,86.615-1933.097,93.119z"/>
	<path d="M-1888.239,109.986V83h-9.035V72.278h9.035V59.025h13.609v13.253h14.22V83h-14.22v26.266c0,4.938,2.895,5.9,6.99,5.9
		c3.129,0,6.023-0.604,8.073-1.324v10c-3.134,0.844-7.353,1.805-12.409,1.805C-1884.87,125.646-1888.239,119.502-1888.239,109.986z"
		/>
</g>
<g>
	<path fill="#ED0E6B" d="M-1832.725,113.724h7.95V49.868h-7.95V39.146h21.562v74.577h7.955v10.599h-29.517V113.724z"/>
	<path d="M-1785.938,64.809c5.185,0,9.397-4.219,9.397-9.398c0-5.179-4.213-9.396-9.397-9.396c-5.18,0-9.393,4.218-9.393,9.396
		C-1795.331,60.59-1791.118,64.809-1785.938,64.809z"/>
	<polygon fill="#ED0E6B" points="-1778.469,113.724 -1778.469,72.278 -1800.03,72.278 -1800.03,82.883 -1792.079,82.883 
		-1792.079,113.724 -1800.03,113.724 -1800.03,124.322 -1770.518,124.322 -1770.518,113.724 	"/>
	<path fill="#ED0E6B" d="M-1767.466,124.305v-14.023h10.839v4.281c2.291,0.604,6.509,1.207,9.639,1.207
		c6.146,0,8.554-2.408,8.554-5.063c0-9.275-28.551-4.096-28.551-23.611c0-9.516,6.744-16.142,20.963-16.142
		c7.107,0,14.577,1.687,18.432,2.889v14.7h-10.962v-7.107c-2.29-0.486-5.425-0.727-7.353-0.727c-6.141,0-8.068,2.414-8.068,4.939
		c0,10.001,28.674,3.979,28.674,24.098C-1725.3,117.456-1729.598,131.893-1767.466,124.305z"/>
	<path fill="#ED0E6B" d="M-1714.901,109.986V84.7h-9.04V73.979h9.04V59.025h13.61v14.953h14.219V84.7h-14.219v24.565
		c0,4.938,2.894,5.9,6.989,5.9c3.134,0,6.023-0.604,8.073-1.324v10c-3.134,0.844-7.353,1.805-12.409,1.805
		C-1711.532,125.646-1714.901,119.502-1714.901,109.986z"/>
</g>
<g>
	<path d="M-2657.451,228.246c0-5.297,2.771-9.035,7.348-11.807c-2.045-1.441-3.375-3.492-3.375-6.381
		c0-4.34,2.895-7.592,6.387-10.123c-4.939-3.732-7.348-9.397-7.348-15.661c0-10.962,7.588-19.997,22.527-19.997
		c3.375,0,6.51,0.48,9.158,1.324h20.723v10.604l-9.158-0.485c1.084,2.653,1.806,5.543,1.806,8.554
		c0,10.962-7.588,20.002-22.528,20.002c-3.374,0-6.263-0.363-8.793-1.206c-0.604,0.603-0.962,1.324-0.962,2.045
		c0,7.71,36.864-1.564,36.864,20.002c0,8.431-5.543,17.828-27.59,17.828C-2651.064,242.945-2657.451,236.201-2657.451,228.246z
		 M-2618.178,225.96c0-6.263-13.734-5.062-24.093-6.866c-2.05,1.805-3.374,4.096-3.374,6.626c0,5.298,6.023,7.225,13.732,7.225
		C-2618.898,232.944-2618.178,227.407-2618.178,225.96z M-2641.789,184.274c0,8.19,5.301,10.604,9.877,10.604
		s9.879-2.291,9.879-10.604c0-8.19-5.303-10.481-9.879-10.481S-2641.789,176.084-2641.789,184.274z"/>
	<path d="M-2602.119,191.627c0-15.783,9.035-27.35,25.544-27.35c16.382,0,23.853,11.566,23.853,25.902
		c0,1.805-0.123,3.855-0.48,5.783h-35.183c1.329,8.19,6.269,12.648,15.666,12.648c7.106,0,12.649-2.652,16.745-4.82v10.48
		c-4.096,2.291-10.364,4.699-18.795,4.699C-2593.084,218.971-2602.119,207.405-2602.119,191.627z M-2588.504,186.442h23.009
		c-0.48-6.141-2.89-12.286-10.84-12.286C-2584.168,174.156-2587.542,179.938-2588.504,186.442z"/>
	<path d="M-2543.646,203.311v-26.986h-9.034v-10.723h9.034V152.35h13.611v13.252h14.219v10.723h-14.219v26.265
		c0,4.938,2.894,5.9,6.989,5.9c3.129,0,6.022-0.603,8.073-1.324v10.001c-3.135,0.844-7.353,1.805-12.409,1.805
		C-2540.276,218.971-2543.646,212.825-2543.646,203.311z"/>
</g>
<g>
	<path fill="#009EA0" d="M-2719.464,306.38h7.95v-63.854h-7.95v-10.723h21.562v74.577h7.955v10.6h-29.517V306.38z"/>
	<path d="M-2672.678,257.465c5.185,0,9.397-4.218,9.397-9.397c0-5.179-4.213-9.397-9.397-9.397c-5.18,0-9.393,4.219-9.393,9.397
		C-2682.07,253.247-2677.857,257.465-2672.678,257.465z"/>
	<polygon fill="#009EA0" points="-2665.208,306.38 -2665.208,264.935 -2686.77,264.935 -2686.77,275.539 -2678.818,275.539 
		-2678.818,306.38 -2686.77,306.38 -2686.77,316.979 -2657.257,316.979 -2657.257,306.38 	"/>
	<path fill="#009EA0" d="M-2654.205,316.962v-14.023h10.839v4.281c2.291,0.603,6.509,1.206,9.639,1.206
		c6.146,0,8.554-2.408,8.554-5.062c0-9.275-28.551-4.096-28.551-23.611c0-9.516,6.744-16.143,20.963-16.143
		c7.107,0,14.577,1.688,18.432,2.889v14.7h-10.962v-7.106c-2.29-0.486-5.425-0.727-7.353-0.727c-6.141,0-8.068,2.413-8.068,4.939
		c0,10,28.674,3.978,28.674,24.098C-2612.039,310.112-2616.337,324.549-2654.205,316.962z"/>
	<path fill="#009EA0" d="M-2601.641,302.644v-25.287h-9.04v-10.721h9.04v-14.953h13.61v14.953h14.219v10.721h-14.219v24.565
		c0,4.938,2.894,5.9,6.989,5.9c3.134,0,6.023-0.603,8.073-1.324v10.001c-3.134,0.844-7.353,1.805-12.409,1.805
		C-2598.271,318.304-2601.641,312.158-2601.641,302.644z"/>
</g>
<g>
	<path d="M-2731.788,125.907c0-5.297,2.771-9.034,7.347-11.806c-2.045-1.441-3.374-3.492-3.374-6.381
		c0-4.341,2.894-7.593,6.386-10.123c-4.938-3.732-7.347-9.398-7.347-15.662c0-10.961,7.587-19.996,22.527-19.996
		c3.374,0,6.508,0.48,9.156,1.324h20.723v10.604l-9.156-0.484c1.084,2.652,1.805,5.542,1.805,8.553
		c0,10.963-7.588,20.002-22.527,20.002c-3.375,0-6.264-0.363-8.795-1.206c-0.604,0.603-0.961,1.324-0.961,2.045
		c0,7.71,36.864-1.564,36.864,20.002c0,8.431-5.542,17.829-27.589,17.829C-2725.402,140.607-2731.788,133.863-2731.788,125.907z
		 M-2692.517,123.621c0-6.263-13.732-5.061-24.092-6.865c-2.051,1.805-3.375,4.095-3.375,6.625c0,5.298,6.023,7.225,13.734,7.225
		C-2693.237,130.605-2692.517,125.068-2692.517,123.621z M-2716.128,81.936c0,8.191,5.303,10.604,9.879,10.604
		s9.878-2.29,9.878-10.604c0-8.19-5.302-10.48-9.878-10.48S-2716.128,73.745-2716.128,81.936z"/>
	<path d="M-2676.457,89.289c0-15.784,9.034-27.35,25.544-27.35c16.383,0,23.852,11.565,23.852,25.902
		c0,1.805-0.122,3.855-0.48,5.782h-35.182c1.329,8.19,6.268,12.649,15.666,12.649c7.107,0,12.649-2.653,16.744-4.821v10.481
		c-4.095,2.291-10.363,4.699-18.795,4.699C-2667.423,116.633-2676.457,105.066-2676.457,89.289z M-2662.841,84.104h23.008
		c-0.48-6.141-2.889-12.286-10.84-12.286C-2658.505,71.817-2661.88,77.6-2662.841,84.104z"/>
	<path d="M-2617.983,100.972V73.985h-9.035V63.264h9.035V50.011h13.609v13.253h14.22v10.722h-14.22v26.265
		c0,4.939,2.895,5.9,6.99,5.9c3.129,0,6.023-0.603,8.073-1.324v10.002c-3.134,0.844-7.353,1.805-12.409,1.805
		C-2614.614,116.633-2617.983,110.486-2617.983,100.972z"/>
</g>
<g>
	<path fill="#009EA0" d="M-2562.469,104.709h7.95V40.854h-7.95V30.132h21.562v74.577h7.955v10.6h-29.517V104.709z"/>
	<path d="M-2515.683,55.793c5.185,0,9.397-4.217,9.397-9.396s-4.213-9.398-9.397-9.398c-5.18,0-9.393,4.219-9.393,9.398
		S-2520.862,55.793-2515.683,55.793z"/>
	<polygon fill="#009EA0" points="-2508.213,104.709 -2508.213,63.264 -2529.774,63.264 -2529.774,73.867 -2521.823,73.867 
		-2521.823,104.709 -2529.774,104.709 -2529.774,115.309 -2500.262,115.309 -2500.262,104.709 	"/>
	<path fill="#009EA0" d="M-2497.21,115.29v-14.022h10.839v4.28c2.291,0.603,6.509,1.206,9.639,1.206
		c6.146,0,8.554-2.408,8.554-5.062c0-9.274-28.551-4.095-28.551-23.611c0-9.515,6.744-16.142,20.963-16.142
		c7.107,0,14.577,1.688,18.432,2.889v14.699h-10.962v-7.106c-2.29-0.485-5.425-0.726-7.353-0.726c-6.141,0-8.068,2.412-8.068,4.939
		c0,10,28.674,3.977,28.674,24.097C-2455.044,108.441-2459.342,122.877-2497.21,115.29z"/>
	<path fill="#009EA0" d="M-2444.646,100.972V75.686h-9.04V64.964h9.04V50.011h13.61v14.953h14.219v10.722h-14.219v24.564
		c0,4.939,2.894,5.9,6.989,5.9c3.134,0,6.023-0.603,8.073-1.324v10.002c-3.134,0.844-7.353,1.805-12.409,1.805
		C-2441.276,116.633-2444.646,110.486-2444.646,100.972z"/>
</g>
<g>
	<path fill="#009EA0" d="M-1336.821-200.741c0-5.297,2.771-9.033,7.348-11.805c-2.045-1.442-3.375-3.492-3.375-6.381
		c0-4.342,2.895-7.594,6.387-10.124c-4.939-3.732-7.348-9.397-7.348-15.661c0-10.962,7.588-19.996,22.527-19.996
		c3.375,0,6.51,0.48,9.158,1.324h20.723v10.604l-9.158-0.485c1.084,2.653,1.806,5.542,1.806,8.554
		c0,10.963-7.588,20.002-22.528,20.002c-3.374,0-6.263-0.363-8.793-1.207c-0.604,0.604-0.962,1.324-0.962,2.045
		c0,7.711,36.864-1.564,36.864,20.002c0,8.432-5.543,17.829-27.59,17.829C-1330.435-186.041-1336.821-192.785-1336.821-200.741z
		 M-1297.548-203.026c0-6.264-13.734-5.062-24.093-6.866c-2.05,1.805-3.374,4.095-3.374,6.626c0,5.297,6.023,7.225,13.732,7.225
		C-1298.269-196.042-1297.548-201.579-1297.548-203.026z M-1321.159-244.712c0,8.191,5.301,10.604,9.877,10.604
		s9.879-2.29,9.879-10.604c0-8.191-5.303-10.481-9.879-10.481S-1321.159-252.903-1321.159-244.712z"/>
	<path fill="#009EA0" d="M-1281.489-237.359c0-15.784,9.035-27.349,25.544-27.349c16.382,0,23.853,11.564,23.853,25.901
		c0,1.806-0.123,3.855-0.48,5.782h-35.183c1.329,8.191,6.269,12.65,15.666,12.65c7.106,0,12.649-2.654,16.745-4.822v10.482
		c-4.096,2.29-10.364,4.698-18.795,4.698C-1272.454-210.016-1281.489-221.581-1281.489-237.359z M-1267.874-242.544h23.009
		c-0.48-6.141-2.89-12.287-10.84-12.287C-1263.538-254.831-1266.912-249.048-1267.874-242.544z"/>
	<path fill="#009EA0" d="M-1223.017-225.677v-26.986h-9.034v-10.721h9.034v-13.253h13.611v13.253h14.219v10.721h-14.219v26.266
		c0,4.939,2.894,5.9,6.989,5.9c3.129,0,6.022-0.604,8.073-1.324v10.001c-3.135,0.844-7.353,1.805-12.409,1.805
		C-1219.646-210.016-1223.017-216.161-1223.017-225.677z"/>
</g>
<g>
	<path fill="#ED0E6B" d="M-1398.834-122.606h7.95v-63.855h-7.95v-10.721h21.562v74.576h7.955v10.6h-29.517V-122.606z"/>
	<path fill="#009EA0" d="M-1352.048-171.521c5.185,0,9.397-4.218,9.397-9.397s-4.213-9.397-9.397-9.397
		c-5.18,0-9.393,4.218-9.393,9.397S-1357.228-171.521-1352.048-171.521z"/>
	<polygon fill="#ED0E6B" points="-1344.578,-122.606 -1344.578,-164.052 -1366.14,-164.052 -1366.14,-153.447 -1358.188,-153.447 
		-1358.188,-122.606 -1366.14,-122.606 -1366.14,-112.007 -1336.627,-112.007 -1336.627,-122.606 	"/>
	<path fill="#ED0E6B" d="M-1333.575-112.024v-14.023h10.839v4.281c2.291,0.603,6.509,1.206,9.639,1.206
		c6.146,0,8.554-2.408,8.554-5.062c0-9.275-28.551-4.096-28.551-23.611c0-9.516,6.744-16.143,20.963-16.143
		c7.107,0,14.577,1.688,18.432,2.889v14.7h-10.962v-7.106c-2.29-0.486-5.425-0.727-7.353-0.727c-6.141,0-8.068,2.413-8.068,4.939
		c0,10,28.674,3.978,28.674,24.098C-1291.409-118.874-1295.707-104.438-1333.575-112.024z"/>
	<path fill="#ED0E6B" d="M-1281.011-126.343v-25.287h-9.04v-10.721h9.04v-14.953h13.61v14.953h14.219v10.721h-14.219v24.565
		c0,4.938,2.894,5.9,6.989,5.9c3.134,0,6.023-0.603,8.073-1.324v10.001c-3.134,0.844-7.353,1.805-12.409,1.805
		C-1277.642-110.683-1281.011-116.828-1281.011-126.343z"/>
</g>
<g>
	<path fill="#009EA0" d="M-1411.158-303.079c0-5.297,2.771-9.034,7.347-11.806c-2.045-1.441-3.374-3.492-3.374-6.381
		c0-4.341,2.894-7.593,6.386-10.123c-4.938-3.732-7.347-9.398-7.347-15.661c0-10.963,7.587-19.997,22.527-19.997
		c3.374,0,6.508,0.48,9.156,1.324h20.723v10.604l-9.156-0.486c1.084,2.654,1.805,5.543,1.805,8.555
		c0,10.962-7.588,20.001-22.527,20.001c-3.375,0-6.264-0.363-8.795-1.206c-0.604,0.603-0.961,1.324-0.961,2.045
		c0,7.71,36.864-1.564,36.864,20.002c0,8.431-5.542,17.829-27.589,17.829C-1404.772-288.379-1411.158-295.123-1411.158-303.079z
		 M-1371.887-305.365c0-6.263-13.732-5.061-24.092-6.865c-2.051,1.805-3.375,4.095-3.375,6.625c0,5.298,6.023,7.225,13.734,7.225
		C-1372.607-298.381-1371.887-303.918-1371.887-305.365z M-1395.498-347.05c0,8.19,5.303,10.604,9.879,10.604
		s9.878-2.29,9.878-10.604c0-8.191-5.302-10.482-9.878-10.482S-1395.498-355.241-1395.498-347.05z"/>
	<path fill="#009EA0" d="M-1355.827-339.697c0-15.784,9.034-27.35,25.544-27.35c16.383,0,23.852,11.565,23.852,25.901
		c0,1.806-0.122,3.856-0.48,5.783h-35.182c1.329,8.19,6.268,12.649,15.666,12.649c7.107,0,12.649-2.653,16.744-4.821v10.481
		c-4.095,2.291-10.363,4.699-18.795,4.699C-1346.793-312.354-1355.827-323.92-1355.827-339.697z M-1342.211-344.882h23.008
		c-0.48-6.141-2.889-12.287-10.84-12.287C-1337.875-357.169-1341.25-351.386-1342.211-344.882z"/>
	<path fill="#009EA0" d="M-1297.354-328.015v-26.986h-9.035v-10.722h9.035v-13.253h13.609v13.253h14.22v10.722h-14.22v26.265
		c0,4.939,2.895,5.9,6.99,5.9c3.129,0,6.023-0.603,8.073-1.324v10.002c-3.134,0.844-7.353,1.805-12.409,1.805
		C-1293.984-312.354-1297.354-318.5-1297.354-328.015z"/>
</g>
<g>
	<path fill="#ED0E6B" d="M-1241.839-324.277h7.95v-63.855h-7.95v-10.722h21.562v74.577h7.955v10.6h-29.517V-324.277z"/>
	<path fill="#009EA0" d="M-1195.053-373.192c5.185,0,9.397-4.219,9.397-9.398c0-5.179-4.213-9.396-9.397-9.396
		c-5.18,0-9.393,4.218-9.393,9.396C-1204.445-377.411-1200.232-373.192-1195.053-373.192z"/>
	<polygon fill="#ED0E6B" points="-1187.583,-324.277 -1187.583,-365.723 -1209.145,-365.723 -1209.145,-355.118 -1201.193,-355.118 
		-1201.193,-324.277 -1209.145,-324.277 -1209.145,-313.678 -1179.632,-313.678 -1179.632,-324.277 	"/>
	<path fill="#ED0E6B" d="M-1176.58-313.696v-14.022h10.839v4.28c2.291,0.603,6.509,1.206,9.639,1.206
		c6.146,0,8.554-2.408,8.554-5.062c0-9.274-28.551-4.095-28.551-23.611c0-9.516,6.744-16.142,20.963-16.142
		c7.107,0,14.577,1.687,18.432,2.889v14.7h-10.962v-7.107c-2.29-0.486-5.425-0.727-7.353-0.727c-6.141,0-8.068,2.414-8.068,4.939
		c0,10.001,28.674,3.979,28.674,24.098C-1134.414-320.545-1138.712-306.109-1176.58-313.696z"/>
	<path fill="#ED0E6B" d="M-1124.016-328.015v-25.286h-9.04v-10.722h9.04v-14.953h13.61v14.953h14.219v10.722h-14.219v24.564
		c0,4.939,2.894,5.9,6.989,5.9c3.134,0,6.023-0.603,8.073-1.324v10.002c-3.134,0.844-7.353,1.805-12.409,1.805
		C-1120.646-312.354-1124.016-318.5-1124.016-328.015z"/>
</g>
<g>
	<path fill="#ED0E6B" d="M-1175.304,225.244c0-5.297,2.771-9.035,7.348-11.807c-2.045-1.441-3.375-3.492-3.375-6.381
		c0-4.34,2.895-7.592,6.387-10.123c-4.939-3.732-7.348-9.396-7.348-15.66c0-10.963,7.588-19.998,22.527-19.998
		c3.375,0,6.51,0.48,9.158,1.324h20.723v10.605l-9.158-0.486c1.084,2.654,1.806,5.543,1.806,8.555
		c0,10.961-7.588,20.002-22.528,20.002c-3.374,0-6.263-0.363-8.793-1.207c-0.604,0.604-0.962,1.324-0.962,2.045
		c0,7.711,36.864-1.564,36.864,20.002c0,8.432-5.543,17.828-27.59,17.828C-1168.917,239.943-1175.304,233.199-1175.304,225.244z
		 M-1136.03,222.959c0-6.264-13.734-5.063-24.093-6.867c-2.05,1.805-3.374,4.096-3.374,6.627c0,5.297,6.023,7.225,13.732,7.225
		C-1136.751,229.943-1136.03,224.406-1136.03,222.959z M-1159.642,181.273c0,8.189,5.301,10.604,9.877,10.604
		s9.879-2.291,9.879-10.604c0-8.191-5.303-10.482-9.879-10.482S-1159.642,173.082-1159.642,181.273z"/>
	<path fill="#ED0E6B" d="M-1119.972,188.625c0-15.783,9.035-27.35,25.544-27.35c16.382,0,23.853,11.566,23.853,25.902
		c0,1.805-0.123,3.855-0.48,5.783h-35.183c1.329,8.191,6.269,12.648,15.666,12.648c7.106,0,12.649-2.652,16.745-4.82v10.48
		c-4.096,2.291-10.364,4.699-18.795,4.699C-1110.937,215.969-1119.972,204.404-1119.972,188.625z M-1106.356,183.441h23.009
		c-0.48-6.141-2.89-12.287-10.84-12.287C-1102.021,171.154-1105.395,176.938-1106.356,183.441z"/>
	<path fill="#ED0E6B" d="M-1061.499,200.309v-26.986h-9.034V162.6h9.034v-13.252h13.611V162.6h14.219v10.723h-14.219v26.266
		c0,4.938,2.894,5.9,6.989,5.9c3.129,0,6.022-0.604,8.073-1.324v10c-3.135,0.844-7.353,1.805-12.409,1.805
		C-1058.129,215.969-1061.499,209.824-1061.499,200.309z"/>
</g>
<g>
	<path fill="#009EA0" d="M-1237.316,303.379h7.95v-63.855h-7.95v-10.723h21.562v74.578h7.955v10.6h-29.517V303.379z"/>
	<path fill="#ED0E6B" d="M-1190.53,254.463c5.185,0,9.397-4.217,9.397-9.396s-4.213-9.398-9.397-9.398
		c-5.18,0-9.393,4.219-9.393,9.398S-1195.71,254.463-1190.53,254.463z"/>
	<polygon fill="#009EA0" points="-1183.061,303.379 -1183.061,261.934 -1204.622,261.934 -1204.622,272.537 -1196.671,272.537 
		-1196.671,303.379 -1204.622,303.379 -1204.622,313.979 -1175.109,313.979 -1175.109,303.379 	"/>
	<path fill="#009EA0" d="M-1172.058,313.961v-14.023h10.839v4.281c2.291,0.602,6.509,1.205,9.639,1.205
		c6.146,0,8.554-2.408,8.554-5.061c0-9.275-28.551-4.096-28.551-23.611c0-9.516,6.744-16.143,20.963-16.143
		c7.107,0,14.577,1.688,18.432,2.889v14.699h-10.962v-7.105c-2.29-0.486-5.425-0.727-7.353-0.727c-6.141,0-8.068,2.412-8.068,4.939
		c0,10,28.674,3.977,28.674,24.098C-1129.892,307.111-1134.189,321.547-1172.058,313.961z"/>
	<path fill="#009EA0" d="M-1119.493,299.643v-25.287h-9.04v-10.721h9.04v-14.953h13.61v14.953h14.219v10.721h-14.219v24.564
		c0,4.939,2.894,5.9,6.989,5.9c3.134,0,6.023-0.602,8.073-1.324v10.002c-3.134,0.844-7.353,1.805-12.409,1.805
		C-1116.124,315.303-1119.493,309.156-1119.493,299.643z"/>
</g>
<g>
	<path fill="#ED0E6B" d="M-1249.641,122.906c0-5.297,2.771-9.035,7.347-11.807c-2.045-1.441-3.374-3.492-3.374-6.381
		c0-4.34,2.894-7.592,6.386-10.123c-4.938-3.732-7.347-9.398-7.347-15.662c0-10.961,7.587-19.996,22.527-19.996
		c3.374,0,6.508,0.48,9.156,1.324h20.723v10.604l-9.156-0.484c1.084,2.652,1.805,5.543,1.805,8.553
		c0,10.963-7.588,20.002-22.527,20.002c-3.375,0-6.264-0.363-8.795-1.205c-0.604,0.602-0.961,1.324-0.961,2.045
		c0,7.709,36.864-1.564,36.864,20.002c0,8.43-5.542,17.828-27.589,17.828C-1243.255,137.605-1249.641,130.861-1249.641,122.906z
		 M-1210.369,120.619c0-6.262-13.732-5.061-24.092-6.865c-2.051,1.805-3.375,4.096-3.375,6.625c0,5.299,6.023,7.225,13.734,7.225
		C-1211.09,127.604-1210.369,122.066-1210.369,120.619z M-1233.98,78.934c0,8.191,5.303,10.605,9.879,10.605
		s9.878-2.291,9.878-10.605c0-8.189-5.302-10.48-9.878-10.48S-1233.98,70.744-1233.98,78.934z"/>
	<path fill="#ED0E6B" d="M-1194.31,86.287c0-15.783,9.034-27.35,25.544-27.35c16.383,0,23.852,11.566,23.852,25.902
		c0,1.805-0.122,3.855-0.48,5.783h-35.182c1.329,8.189,6.268,12.648,15.666,12.648c7.107,0,12.649-2.652,16.744-4.82v10.48
		c-4.095,2.291-10.363,4.699-18.795,4.699C-1185.275,113.631-1194.31,102.064-1194.31,86.287z M-1180.693,81.102h23.008
		c-0.48-6.141-2.889-12.285-10.84-12.285C-1176.357,68.816-1179.732,74.598-1180.693,81.102z"/>
	<path fill="#ED0E6B" d="M-1135.836,97.971V70.984h-9.035V60.262h9.035V47.01h13.609v13.252h14.22v10.723h-14.22v26.264
		c0,4.939,2.895,5.9,6.99,5.9c3.129,0,6.023-0.602,8.073-1.324v10.002c-3.134,0.844-7.353,1.805-12.409,1.805
		C-1132.467,113.631-1135.836,107.484-1135.836,97.971z"/>
</g>
<g>
	<path fill="#009EA0" d="M-1080.321,101.707h7.95V37.852h-7.95V27.131h21.562v74.576h7.955v10.6h-29.517V101.707z"/>
	<path fill="#ED0E6B" d="M-1033.535,52.791c5.185,0,9.397-4.217,9.397-9.396s-4.213-9.398-9.397-9.398
		c-5.18,0-9.393,4.219-9.393,9.398S-1038.715,52.791-1033.535,52.791z"/>
	<polygon fill="#009EA0" points="-1026.065,101.707 -1026.065,60.262 -1047.627,60.262 -1047.627,70.865 -1039.676,70.865 
		-1039.676,101.707 -1047.627,101.707 -1047.627,112.307 -1018.114,112.307 -1018.114,101.707 	"/>
	<path fill="#009EA0" d="M-1015.063,112.289V98.266h10.839v4.281c2.291,0.602,6.509,1.205,9.639,1.205
		c6.146,0,8.554-2.408,8.554-5.061c0-9.275-28.551-4.096-28.551-23.611c0-9.516,6.744-16.143,20.963-16.143
		c7.107,0,14.577,1.688,18.432,2.889v14.699h-10.962V69.42c-2.29-0.486-5.425-0.727-7.353-0.727c-6.141,0-8.068,2.412-8.068,4.939
		c0,10,28.674,3.977,28.674,24.098C-972.896,105.439-977.194,119.875-1015.063,112.289z"/>
	<path fill="#009EA0" d="M-962.498,97.971V72.684h-9.04V61.963h9.04V47.01h13.61v14.953h14.219v10.721h-14.219v24.564
		c0,4.939,2.894,5.9,6.989,5.9c3.134,0,6.023-0.602,8.073-1.324v10.002c-3.134,0.844-7.353,1.805-12.409,1.805
		C-959.129,113.631-962.498,107.484-962.498,97.971z"/>
</g>
<rect x="-3669.944" y="-395.099" fill="none" width="462.195" height="153.66"/>
<text transform="matrix(1 0 0 1 -3669.9443 -385.1592)"><tspan x="0" y="0" font-family="'MyriadPro-Regular'" font-size="14">Navn:</tspan><tspan x="0" y="16.8" font-family="'MyriadPro-Regular'" font-size="14">Getlist </tspan><tspan x="0" y="50.4" font-family="'MyriadPro-Regular'" font-size="14">Mål:</tspan><tspan x="0" y="67.2" font-family="'MyriadPro-Regular'" font-size="14">Et logo der fanger øjet og er let genkendeligt, med friske og lette farver der </tspan><tspan x="0" y="84" font-family="'MyriadPro-Regular'" font-size="14">udstråler overskud, noget som man skal have når man laver sin liste, farverne </tspan><tspan x="0" y="100.8" font-family="'MyriadPro-Regular'" font-size="14">skal kunne fungere på andre elementer såsom tekst og på billeder.</tspan></text>
<g>
	<path d="M-3451.745-218.078c29.737,0,53.93,24.193,53.93,53.93c0,29.737-24.193,53.93-53.93,53.93
		c-29.737,0-53.93-24.193-53.93-53.93C-3505.675-193.885-3481.482-218.078-3451.745-218.078 M-3451.745-219.078
		c-30.337,0-54.93,24.593-54.93,54.93c0,30.337,24.593,54.93,54.93,54.93c30.337,0,54.93-24.593,54.93-54.93
		C-3396.815-194.485-3421.408-219.078-3451.745-219.078L-3451.745-219.078z"/>
</g>
<circle cx="-3336.303" cy="-163.818" r="54.93"/>
<g>
	<circle fill="#DD5928" cx="-3336.292" cy="-50.694" r="54.93"/>
</g>
<circle fill="#009EA0" cx="-3451.745" cy="-50.393" r="54.93"/>
<g>
	<polygon fill="#009EA0" points="-3616.158,181.761 -3629.362,160.001 -3624.78,157.218 -3616.657,170.604 -3600.041,136.702 
		-3595.228,139.062 	"/>
</g>
<rect x="-3659.816" y="207.095" width="91.762" height="91.762"/>
<g>
	<polygon fill="#ED0E6B" points="-3616.158,273.695 -3629.362,251.936 -3624.78,249.152 -3616.657,262.538 -3600.041,228.637 
		-3595.228,230.996 	"/>
</g>
<rect x="-3567.883" y="207.095" fill="#009EA0" width="91.762" height="91.762"/>
<g>
	<polygon fill="#ED0E6B" points="-3524.225,273.695 -3537.429,251.936 -3532.846,249.152 -3524.724,262.538 -3508.107,228.637 
		-3503.294,230.996 	"/>
</g>
<g>
	<g>
		<path fill="#ED0E6B" d="M-3356.08,245.563c0-3.254,1.701-5.547,4.511-7.25c-1.255-0.886-2.072-2.145-2.072-3.918
			c0-2.666,1.777-4.663,3.922-6.217c-3.033-2.29-4.512-5.77-4.512-9.615c0-6.73,4.659-12.279,13.833-12.279
			c2.071,0,3.997,0.296,5.623,0.814h12.725v6.51l-5.624-0.296c0.666,1.628,1.108,3.401,1.108,5.251c0,6.73-4.659,12.28-13.832,12.28
			c-2.072,0-3.846-0.222-5.4-0.739c-0.371,0.37-0.591,0.812-0.591,1.255c0,4.735,22.636-0.961,22.636,12.282
			c0,5.178-3.403,10.948-16.94,10.948C-3352.158,254.589-3356.08,250.447-3356.08,245.563z M-3331.964,244.157
			c0-3.846-8.433-3.106-14.794-4.214c-1.258,1.107-2.072,2.513-2.072,4.068c0,3.252,3.698,4.436,8.433,4.436
			C-3332.407,248.447-3331.964,245.047-3331.964,244.157z M-3346.463,218.563c0,5.028,3.255,6.511,6.065,6.511
			c2.809,0,6.066-1.406,6.066-6.511c0-5.031-3.257-6.437-6.066-6.437C-3343.208,212.126-3346.463,213.531-3346.463,218.563z"/>
		<path fill="#ED0E6B" d="M-3322.104,223.077c0-9.693,5.547-16.794,15.685-16.794c10.059,0,14.646,7.101,14.646,15.905
			c0,1.108-0.076,2.368-0.295,3.55h-21.604c0.816,5.029,3.849,7.768,9.62,7.768c4.364,0,7.768-1.629,10.282-2.96v6.436
			c-2.514,1.406-6.364,2.886-11.54,2.886C-3316.557,239.867-3322.104,232.766-3322.104,223.077z M-3313.744,219.894h14.128
			c-0.294-3.771-1.774-7.545-6.656-7.545C-3311.082,212.349-3313.153,215.9-3313.744,219.894z"/>
		<path fill="#ED0E6B" d="M-3286.2,230.25v-16.57h-5.547v-6.582h5.547v-8.138h8.358v8.138h8.731v6.582h-8.731v16.128
			c0,3.032,1.777,3.623,4.292,3.623c1.921,0,3.698-0.371,4.957-0.813v6.141c-1.924,0.519-4.514,1.108-7.619,1.108
			C-3284.131,239.867-3286.2,236.094-3286.2,230.25z"/>
	</g>
	<g>
		<path d="M-3394.158,293.539h4.881v-39.21h-4.881v-6.584h13.24v45.794h4.885v6.508h-18.125V293.539z"/>
		<path fill="#ED0E6B" d="M-3365.43,263.504c3.184,0,5.771-2.59,5.771-5.771c0-3.182-2.586-5.771-5.771-5.771
			c-3.18,0-5.768,2.589-5.768,5.771C-3371.197,260.914-3368.61,263.504-3365.43,263.504z"/>
		<polygon points="-3360.843,293.539 -3360.843,268.09 -3374.082,268.09 -3374.082,274.602 -3369.2,274.602 -3369.2,293.539 
			-3374.082,293.539 -3374.082,300.047 -3355.96,300.047 -3355.96,293.539 		"/>
		<path d="M-3354.087,300.036v-8.61h6.656v2.628c1.406,0.371,3.996,0.741,5.918,0.741c3.773,0,5.252-1.479,5.252-3.107
			c0-5.696-17.531-2.515-17.531-14.5c0-5.842,4.141-9.911,12.872-9.911c4.364,0,8.951,1.037,11.318,1.774v9.026h-6.731v-4.363
			c-1.406-0.3-3.331-0.447-4.514-0.447c-3.771,0-4.955,1.483-4.955,3.034c0,6.14,17.607,2.442,17.607,14.797
			C-3328.195,295.831-3330.834,304.695-3354.087,300.036z"/>
		<path d="M-3321.811,291.243v-15.526h-5.551v-6.582h5.551v-9.183h8.358v9.183h8.73v6.582h-8.73v15.085
			c0,3.032,1.776,3.623,4.292,3.623c1.924,0,3.699-0.371,4.957-0.813v6.14c-1.924,0.519-4.515,1.108-7.62,1.108
			C-3319.742,300.86-3321.811,297.087-3321.811,291.243z"/>
	</g>
	<g>
		<polygon fill="#ED0E6B" points="-3286.118,315.276 -3298.093,295.542 -3293.937,293.018 -3286.57,305.157 -3271.5,274.411 
			-3267.135,276.551 		"/>
	</g>
</g>
<rect x="-3567.883" y="115.502" width="91.762" height="91.762"/>
<g>
	<polygon fill="#009EA0" points="-3524.225,182.103 -3537.429,160.343 -3532.846,157.56 -3524.724,170.945 -3508.107,137.044 
		-3503.294,139.403 	"/>
</g>
<g>
	<path fill="#009EA0" d="M-3395.625,173.533c0-3.253,1.701-5.547,4.511-7.247c-1.255-0.886-2.072-2.146-2.072-3.919
		c0-2.667,1.777-4.663,3.922-6.216c-3.032-2.292-4.511-5.772-4.511-9.618c0-6.73,4.658-12.277,13.833-12.277
		c2.071,0,3.996,0.295,5.623,0.813h12.724v6.511l-5.623-0.298c0.666,1.629,1.108,3.404,1.108,5.252
		c0,6.732-4.659,12.283-13.832,12.283c-2.072,0-3.846-0.224-5.4-0.741c-0.371,0.37-0.59,0.813-0.59,1.255
		c0,4.735,22.636-0.961,22.636,12.281c0,5.179-3.403,10.949-16.941,10.949C-3391.703,182.561-3395.625,178.419-3395.625,173.533z
		 M-3371.51,172.131c0-3.848-8.433-3.108-14.793-4.216c-1.259,1.107-2.072,2.514-2.072,4.067c0,3.253,3.698,4.436,8.433,4.436
		C-3371.953,176.418-3371.51,173.019-3371.51,172.131z M-3386.008,146.533c0,5.031,3.256,6.511,6.066,6.511s6.065-1.405,6.065-6.511
		c0-5.028-3.256-6.436-6.065-6.436S-3386.008,141.505-3386.008,146.533z"/>
	<path fill="#009EA0" d="M-3361.649,151.049c0-9.691,5.547-16.793,15.685-16.793c10.06,0,14.646,7.102,14.646,15.904
		c0,1.108-0.075,2.368-0.295,3.55h-21.603c0.816,5.031,3.849,7.769,9.62,7.769c4.364,0,7.767-1.631,10.281-2.962v6.437
		c-2.514,1.407-6.363,2.887-11.541,2.887C-3356.102,167.84-3361.649,160.737-3361.649,151.049z M-3353.288,147.865h14.128
		c-0.295-3.77-1.774-7.545-6.657-7.545C-3350.626,140.32-3352.698,143.871-3353.288,147.865z"/>
	<path fill="#009EA0" d="M-3325.744,158.223v-16.571h-5.548v-6.583h5.548v-8.139h8.356v8.139h8.731v6.583h-8.731v16.128
		c0,3.034,1.777,3.624,4.292,3.624c1.921,0,3.698-0.372,4.958-0.813v6.142c-1.925,0.519-4.515,1.108-7.62,1.108
		C-3323.676,167.84-3325.744,164.065-3325.744,158.223z"/>
</g>
<g>
	<path d="M-3291.657,160.518h4.882v-39.209h-4.882v-6.584h13.24v45.793h4.884v6.508h-18.125V160.518z"/>
	<path fill="#009EA0" d="M-3262.928,130.481c3.183,0,5.77-2.591,5.77-5.771s-2.586-5.771-5.77-5.771
		c-3.181,0-5.768,2.591-5.768,5.771S-3266.109,130.481-3262.928,130.481z"/>
	<polygon points="-3258.341,160.518 -3258.341,135.068 -3271.581,135.068 -3271.581,141.579 -3266.698,141.579 -3266.698,160.518 
		-3271.581,160.518 -3271.581,167.025 -3253.459,167.025 -3253.459,160.518 	"/>
	<path d="M-3251.585,167.014v-8.609h6.656v2.627c1.406,0.372,3.997,0.741,5.918,0.741c3.774,0,5.252-1.478,5.252-3.107
		c0-5.695-17.53-2.514-17.53-14.498c0-5.844,4.141-9.911,12.872-9.911c4.364,0,8.951,1.035,11.317,1.773v9.025h-6.73v-4.363
		c-1.406-0.299-3.331-0.446-4.515-0.446c-3.771,0-4.954,1.482-4.954,3.033c0,6.142,17.606,2.442,17.606,14.797
		C-3225.694,162.81-3228.333,171.673-3251.585,167.014z"/>
	<path d="M-3219.309,158.223v-15.526h-5.551v-6.584h5.551v-9.183h8.357v9.183h8.731v6.584h-8.731v15.083
		c0,3.034,1.776,3.624,4.292,3.624c1.924,0,3.699-0.372,4.957-0.813v6.142c-1.924,0.519-4.515,1.108-7.619,1.108
		C-3217.24,167.84-3219.309,164.065-3219.309,158.223z"/>
</g>
<g>
	<polygon fill="#009EA0" points="-246.164,283.018 -274.643,236.085 -264.758,230.081 -247.241,258.952 -211.4,185.829 
		-201.02,190.919 	"/>
</g>
<polyline fill="none" stroke="#ED0E6B" stroke-width="7" stroke-miterlimit="10" points="-3789.512,-397.771 -3775.588,-374.826 
	-3751.074,-424.836 "/>
<rect x="-3660.03" y="53.922" fill="none" width="63.637" height="13.585"/>
<text transform="matrix(1 0 0 1 -3660.0303 63.8613)" font-family="'MyriadPro-Regular'" font-size="14">Evt. ikon?</text>
<rect x="-3395.286" y="53.005" fill="none" width="196.667" height="11.666"/>
<text transform="matrix(1 0 0 1 -3395.2856 62.9443)" font-family="'MyriadPro-Regular'" font-size="14">Eksempel på ikonets placering</text>
<path fill="#009EA0" d="M-409.412-16.629c0-37.537,21.488-65.044,60.75-65.044c38.96,0,56.727,27.508,56.727,61.602
	c0,4.293-0.293,9.169-1.143,13.755h-83.672c3.16,19.48,14.907,30.081,37.257,30.081c16.901,0,30.083-6.309,39.823-11.464v24.925
	c-9.74,5.448-24.648,11.176-44.698,11.176C-387.924,48.401-409.412,20.898-409.412-16.629z M-377.031-28.957h54.72
	c-1.143-14.604-6.872-29.221-25.779-29.221C-366.72-58.178-374.744-44.425-377.031-28.957z"/>
<path fill="#009EA0" d="M-270.35,11.157v-64.18h-21.486v-25.501h21.486v-40.529h32.37v40.529h33.815v25.501h-33.815V9.443
	c0,11.742,6.882,14.032,16.622,14.032c7.441,0,14.323-1.435,19.2-3.149v23.782c-7.455,2.008-17.485,4.293-29.512,4.293
	C-262.335,48.401-270.35,33.788-270.35,11.157z"/>
<path d="M-646.258,229.614h18.908V77.751h-18.908V52.249h51.278v177.365h18.919v25.207h-70.197V229.614z"/>
<path fill="#009EA0" d="M-534.989,113.28c12.33,0,22.35-10.029,22.35-22.348s-10.02-22.352-22.35-22.352
	c-12.318,0-22.338,10.033-22.338,22.352S-547.308,113.28-534.989,113.28z"/>
<polygon points="-517.225,229.614 -517.225,131.047 -568.503,131.047 -568.503,156.265 -549.593,156.265 -549.593,229.614 
	-568.503,229.614 -568.503,254.821 -498.314,254.821 -498.314,229.614 "/>
<path d="M-491.057,254.78v-33.352h25.777v10.182c5.448,1.432,15.479,2.867,22.923,2.867c14.615,0,20.343-5.729,20.343-12.035
	c0-22.061-67.9-9.741-67.9-56.154c0-22.63,16.039-38.391,49.854-38.391c16.903,0,34.668,4.014,43.835,6.87v34.958h-26.07v-16.898
	c-5.446-1.156-12.901-1.728-17.486-1.728c-14.604,0-19.188,5.736-19.188,11.747c0,23.781,68.192,9.457,68.192,57.311
	C-390.776,238.489-400.998,272.822-491.057,254.78z"/>
<path d="M-366.046,220.728v-60.139h-21.5v-25.496h21.5V90.517h32.368v44.576h33.815v25.496h-33.815v58.42
	c0,11.748,6.882,14.033,16.622,14.033c7.453,0,14.325-1.432,19.2-3.15v23.787c-7.453,2.008-17.486,4.293-29.512,4.293
	C-358.033,257.972-366.046,243.354-366.046,220.728z"/>
<path fill="#009EA0" d="M-409.203-78.524h-49.283c-6.299-2.006-13.754-3.149-21.78-3.149c-35.529,0-53.575,21.487-53.575,47.56
	c0,14.897,5.728,28.367,17.475,37.244c-8.306,6.02-15.189,13.754-15.189,24.075c0,13.09,13.326,19.156,24.298,21.467
	c8.227,1.732,16.615,2.315,24.995,2.656c7.032,0.286,14.511,0.01,21.383,1.735c3.444,0.864,6.996,2.566,9.585,5.054
	c8.224,7.901-0.483,17.672-8.677,20.73c-4.469,1.668-9.437,2.285-14.172,2.592v23.811c46.376-1.99,58.351-23.144,58.351-42.232
	c0-51.29-87.672-29.23-87.672-47.569c0-1.714,0.853-3.428,2.288-4.863c6.018,2.007,12.887,2.871,20.911,2.871
	c35.532,0,53.577-21.502,53.577-47.57c0-7.163-1.716-14.033-4.294-20.344l21.78,1.156V-78.524z M-480.267-8.895
	c-10.883,0-23.489-5.741-23.489-25.219c0-19.481,12.606-24.93,23.489-24.93c10.884,0,23.494,5.449,23.494,24.93
	C-456.772-14.344-469.383-8.895-480.267-8.895z"/>
<g>
	<polygon fill="#009EA0" points="866.161,301.814 817.45,221.537 834.357,211.268 864.319,260.651 925.624,135.575 943.38,144.281 	
		"/>
</g>
<path fill="#009EA0" d="M181.671,209.296c0-37.536,21.488-65.044,60.75-65.044c38.96,0,56.727,27.508,56.727,61.603
	c0,4.291-0.293,9.168-1.143,13.753h-83.672c3.16,19.481,14.907,30.081,37.257,30.081c16.901,0,30.083-6.308,39.823-11.463v24.924
	c-9.74,5.449-24.648,11.176-44.698,11.176C203.159,274.325,181.671,246.823,181.671,209.296z M214.052,196.968h54.72
	c-1.143-14.604-6.872-29.221-25.779-29.221C224.363,167.747,216.339,181.501,214.052,196.968z"/>
<path fill="#009EA0" d="M320.733,235.082v-64.18h-21.486v-25.501h21.486v-40.529h32.37v40.529h33.815v25.501h-33.815v62.466
	c0,11.742,6.882,14.033,16.622,14.033c7.441,0,14.323-1.436,19.2-3.15v23.783c-7.455,2.006-17.485,4.291-29.512,4.291
	C328.748,272.325,320.733,257.712,320.733,235.082z"/>
<path fill="#FFFFFF" d="M464.988,243.886h18.908V92.022h-18.908V66.521h51.278v177.365h18.919v25.207h-70.197V243.886z"/>
<path fill="#FFFFFF" d="M576.257,127.552c12.33,0,22.35-10.029,22.35-22.348s-10.02-22.352-22.35-22.352
	c-12.318,0-22.338,10.033-22.338,22.352S563.938,127.552,576.257,127.552z"/>
<polygon fill="#FFFFFF" points="594.021,243.886 594.021,145.318 542.743,145.318 542.743,170.536 561.653,170.536 561.653,243.886 
	542.743,243.886 542.743,269.093 612.932,269.093 612.932,243.886 "/>
<path fill="#FFFFFF" d="M620.189,269.052V235.7h25.777v10.182c5.448,1.432,15.479,2.867,22.923,2.867
	c14.615,0,20.343-5.729,20.343-12.035c0-22.061-67.9-9.741-67.9-56.154c0-22.63,16.039-38.391,49.854-38.391
	c16.903,0,34.668,4.014,43.835,6.87v34.958h-26.07v-16.898c-5.446-1.156-12.901-1.728-17.486-1.728
	c-14.604,0-19.188,5.736-19.188,11.747c0,23.781,68.192,9.457,68.192,57.311C720.47,252.761,710.248,287.094,620.189,269.052z"/>
<path fill="#FFFFFF" d="M745.2,234.999V174.86h-21.5v-25.496h21.5v-44.576h32.368v44.576h33.815v25.496h-33.815v58.42
	c0,11.748,6.882,14.033,16.622,14.033c7.453,0,14.325-1.432,19.2-3.15v23.787c-7.453,2.008-17.486,4.293-29.512,4.293
	C753.213,272.243,745.2,257.626,745.2,234.999z"/>
<path fill="#009EA0" d="M181.88,145.401h-49.283c-6.299-2.006-13.754-3.149-21.78-3.149c-35.529,0-53.575,21.487-53.575,47.56
	c0,14.896,5.728,28.368,17.475,37.244c-8.306,6.02-15.189,13.754-15.189,24.075c0,13.089,13.326,19.155,24.298,21.467
	c8.227,1.732,16.615,2.315,24.995,2.657c7.032,0.285,14.511,0.009,21.383,1.734c3.444,0.864,6.996,2.566,9.585,5.054
	c8.224,7.901-0.483,17.672-8.677,20.731c-4.469,1.667-9.437,2.285-14.172,2.592v23.81c46.376-1.99,58.351-23.144,58.351-42.232
	c0-51.29-87.672-29.231-87.672-47.569c0-1.714,0.853-3.428,2.288-4.863c6.018,2.007,12.887,2.871,20.911,2.871
	c35.532,0,53.577-21.502,53.577-47.57c0-7.162-1.716-14.031-4.294-20.344l21.78,1.156V145.401z M110.816,215.03
	c-10.883,0-23.489-5.742-23.489-25.219c0-19.48,12.606-24.93,23.489-24.93c10.884,0,23.494,5.449,23.494,24.93
	C134.311,209.581,121.7,215.03,110.816,215.03z"/>
</svg>
